<?xml version="1.0" encoding="utf-8"?>
<!-- Generator: Adobe Illustrator 19.0.0, SVG Export Plug-In . SVG Version: 6.00 Build 0)  -->
<svg version="1.1" id="Layer_1" xmlns="http://www.w3.org/2000/svg" xmlns:xlink="http://www.w3.org/1999/xlink" x="0px" y="0px"
	 viewBox="0 0 556.111 111.339" style="enable-background:new 0 0 556.111 111.339;" xml:space="preserve">
<style type="text/css">
	.st0{fill:#FF5000;}
	.st1{fill:#532D32;}
</style>
<g>
	<g>
		<g>
			<path class="st0" d="M55.84,43.475c-13.088,1.377-37.325,34.497-36.044,50.726c0.814,10.364,9.845,18.011,20.36,17.058
				c6.948-0.637,12.759-4.868,15.684-10.672c2.934,5.804,8.749,10.035,15.704,10.672c10.502,0.953,19.538-6.693,20.347-17.058
				C93.172,77.972,68.937,44.852,55.84,43.475"/>
		</g>
		<g>
			<path class="st0" d="M24.619,47.018c3.782,8.999,1.763,18.453-4.511,21.135C13.836,70.826,5.69,65.706,1.907,56.709
				c-3.782-9.002-1.763-18.461,4.504-21.136C12.682,32.903,20.836,38.023,24.619,47.018"/>
		</g>
		<g>
			<path class="st0" d="M87.074,47.018c-3.78,8.999-1.765,18.453,4.507,21.135c6.277,2.674,14.421-2.446,18.202-11.443
				c3.785-9.002,1.763-18.461-4.507-21.136C99.003,32.903,90.861,38.023,87.074,47.018"/>
		</g>
		<g>
			<path class="st0" d="M52.845,19.211c1.34,11.522-4.532,21.678-13.103,22.69c-8.574,1.008-16.608-7.514-17.939-19.036
				C20.462,11.344,26.327,1.188,34.903,0.174C43.483-0.836,51.513,7.691,52.845,19.211"/>
		</g>
		<g>
			<path class="st0" d="M58.846,19.211c-1.339,11.522,4.533,21.678,13.104,22.69c8.573,1.008,16.6-7.514,17.939-19.036
				C91.225,11.344,85.359,1.188,76.79,0.174C68.21-0.836,60.172,7.691,58.846,19.211"/>
		</g>
	</g>
	<g>
		<path class="st1" d="M334.984,55.758c0-30.731,20.688-54.372,50.816-54.372c29.695,0,50.82,24.379,50.82,54.372
			c0,30.577-20.534,54.366-50.82,54.366C355.81,110.125,334.984,86.335,334.984,55.758 M413.573,55.758
			c0-17.874-9.303-33.985-27.773-33.985c-18.461,0-27.782,16.11-27.782,33.985c0,18.026,9.016,33.981,27.782,33.981
			C404.558,89.74,413.573,73.785,413.573,55.758"/>
	</g>
	<g>
		<path class="st0" d="M530.718,98.604c0.003-7.003,5.69-12.695,12.696-12.698c7.006,0.003,12.693,5.695,12.696,12.698
			c-0.003,7.002-5.69,12.695-12.696,12.695C536.408,111.299,530.721,105.605,530.718,98.604 M535.033,76.531
			c-2.156-1.958-3.437-4.831-3.43-8.214v-56.89c-0.006-3.383,1.274-6.265,3.43-8.214c2.153-1.965,5.113-3.007,8.381-3.007
			c3.216,0,6.167,1.089,8.323,3.059c2.169,1.971,3.489,4.831,3.485,8.162v56.89c0.003,3.336-1.316,6.191-3.485,8.162
			c-2.156,1.968-5.106,3.054-8.323,3.054C540.146,79.533,537.186,78.491,535.033,76.531"/>
	</g>
	<g>
		<path class="st1" d="M447.465,14.535c0-6.987,4.169-11.588,11.607-11.588h26.31c21.862,0,38.06,14.269,38.06,35.532
			c0,21.705-16.801,35.236-37.162,35.236h-16.506v24.38c0,7.434-4.763,11.602-11.156,11.602c-6.39,0-11.153-4.168-11.153-11.602
			V14.535z M469.775,54.089h15.17c9.357,0,15.306-6.839,15.306-15.762c0-8.919-5.949-15.757-15.306-15.757h-15.17V54.089z"/>
	</g>
	<g>
		<path class="st1" d="M190.621,0c10.856,0,31.968,3.57,31.968,16.649c0,5.358-3.716,9.964-9.216,9.964
			c-6.097,0-10.258-5.201-22.752-5.201c-18.433,0-27.948,15.61-27.948,33.748c0,17.694,9.662,32.856,27.948,32.856
			c12.494,0,17.544-6.246,23.644-6.246c6.689,0,9.814,6.692,9.814,10.114c0,14.274-22.454,17.547-33.458,17.547
			c-30.18,0-51.141-23.939-51.141-54.718C139.48,23.787,160.292,0,190.621,0"/>
	</g>
	<g>
		<path class="st1" d="M233.218,12.489c0-7.434,4.756-11.599,11.15-11.599c6.394,0,11.148,4.165,11.148,11.599v31.52h46.684v-31.52
			c0-7.434,4.761-11.599,11.153-11.599c6.394,0,11.158,4.165,11.158,11.599v84.452c0,7.431-4.764,11.596-11.158,11.596
			c-6.392,0-11.153-4.165-11.153-11.596V64.523h-46.684v32.417c0,7.431-4.755,11.596-11.148,11.596
			c-6.393,0-11.15-4.165-11.15-11.596V12.489z"/>
	</g>
</g>
</svg>
